<svg width="113" height="40" viewBox="0 0 113 40" fill="none" xmlns="http://www.w3.org/2000/svg"><g clip-path="url(#clip0_115_1656)" fill="#375A5A"><path fill-rule="evenodd" clip-rule="evenodd" d="M84.786 21.276c0-5.181 3.602-7.914 7.936-7.383v3.399c-2.664.167-4.55 1.527-4.65 4.499v9.651h-3.299l.013-10.166zM62.7 22.848v8.79h-3.171v-2.646c-1.362 1.825-3.569 2.687-6.05 2.687a8.796 8.796 0 01-3.38-.667 8.724 8.724 0 01-2.853-1.91 8.624 8.624 0 01-1.884-2.856 8.553 8.553 0 01-.618-3.356c0-5.06 3.94-8.96 8.802-8.96a9.2 9.2 0 016.437 2.618A9.016 9.016 0 0162.7 22.89v-.042zm-3.695.042a5.356 5.356 0 00-.352-2.133 5.4 5.4 0 00-1.169-1.827 5.465 5.465 0 00-1.798-1.227 5.51 5.51 0 00-4.28 0 5.465 5.465 0 00-1.797 1.227 5.401 5.401 0 00-1.169 1.827 5.358 5.358 0 00-.352 2.133c0 3.252 2.397 5.696 5.408 5.696 3.01 0 5.496-2.51 5.496-5.696m53.219-.042v8.79h-3.171v-2.646c-1.361 1.825-3.568 2.687-6.05 2.687a8.79 8.79 0 01-3.378-.667 8.72 8.72 0 01-2.853-1.91 8.617 8.617 0 01-1.883-2.857 8.549 8.549 0 01-.617-3.355c0-5.06 3.94-8.96 8.799-8.96 2.41 0 4.723.94 6.437 2.618a9.016 9.016 0 012.716 6.342v-.042zm-3.695.042a5.36 5.36 0 00-1.543-3.917 5.464 5.464 0 00-1.789-1.21 5.51 5.51 0 00-4.248 0 5.46 5.46 0 00-1.789 1.21 5.395 5.395 0 00-1.172 1.804 5.353 5.353 0 00-.371 2.113c0 3.252 2.393 5.696 5.403 5.696a5.673 5.673 0 003.935-1.726 5.553 5.553 0 001.561-3.97"/><path d="M29.008 15.957a6.677 6.677 0 012.208-1.582 6.736 6.736 0 012.663-.577c3.539 0 6.465 2.858 6.964 6.583v11.17h-3.159v-9.693c0-2.553-1.957-4.603-4.376-4.603-2.418 0-4.376 2.071-4.376 4.603v9.693h-3.268V8.571h3.306l.038 7.386z"/><path fill-rule="evenodd" clip-rule="evenodd" d="M67.19 8.531h3.35v13.042l7.466-7.392h4.718l-8.71 8.622 8.795 8.705h-4.845l-6.308-6.24-1.074 1.059v5.097h-3.434l.043-22.893zM19.17 24.385a8.42 8.42 0 01-3.155 2.969 8.525 8.525 0 01-8.409-.172 8.409 8.409 0 01-3.028-3.095 8.304 8.304 0 01.097-8.326 8.416 8.416 0 013.099-3.025 8.522 8.522 0 014.208-1.099 8.745 8.745 0 014.187 1.094 8.638 8.638 0 013.132 2.961l2.866-1.879a12.05 12.05 0 00-4.37-4.081 12.197 12.197 0 00-5.815-1.498A11.978 11.978 0 006.1 9.82a11.825 11.825 0 00-4.315 4.263 11.674 11.674 0 00-1.613 5.82 11.672 11.672 0 001.515 5.845A11.82 11.82 0 005.93 30.08a11.984 11.984 0 0011.782.267 11.837 11.837 0 004.438-4.137l-2.98-1.825z"/></g><defs><clipPath id="clip0_115_1656"><path fill="#fff" transform="translate(0 8.234)" d="M0 0h112.215v23.529H0z"/></clipPath></defs></svg>